<svg width="23" height="23" viewBox="0 0 23 23" fill="none" xmlns="http://www.w3.org/2000/svg">
<g id="icn bx-star">
<path id="Vector" d="M5.99748 13.1377L4.6308 19.0557C4.58848 19.2349 4.60118 19.4227 4.66725 19.5945C4.73332 19.7664 4.84969 19.9143 5.00115 20.0191C5.15261 20.1238 5.33213 20.1804 5.51625 20.1814C5.70038 20.1825 5.88056 20.1281 6.03325 20.0252L11.0276 16.6956L16.0219 20.0252C16.1782 20.1289 16.3624 20.1823 16.5499 20.1782C16.7374 20.1741 16.9192 20.1127 17.0707 20.0022C17.2222 19.8917 17.3363 19.7375 17.3976 19.5602C17.4588 19.383 17.4643 19.1912 17.4134 19.0107L15.7358 13.1404L19.8963 9.39628C20.0296 9.27629 20.1247 9.11988 20.17 8.94638C20.2153 8.77289 20.2088 8.58992 20.1512 8.4201C20.0936 8.25029 19.9876 8.10107 19.8461 7.99091C19.7046 7.88075 19.5339 7.81448 19.3552 7.80029L14.126 7.38386L11.8632 2.37485C11.791 2.21356 11.6737 2.0766 11.5255 1.98049C11.3772 1.88439 11.2043 1.83325 11.0276 1.83325C10.8509 1.83325 10.678 1.88439 10.5297 1.98049C10.3814 2.0766 10.2641 2.21356 10.192 2.37485L7.92917 7.38386L2.70002 7.79937C2.52433 7.81329 2.35637 7.87753 2.21623 7.98441C2.07609 8.09128 1.96971 8.23627 1.90982 8.40202C1.84992 8.56777 1.83905 8.74727 1.8785 8.91904C1.91794 9.09081 2.00604 9.24758 2.13225 9.37059L5.99748 13.1377ZM8.61435 9.16972C8.77807 9.15682 8.93531 9.10012 9.06957 9.00555C9.20384 8.91098 9.3102 8.78203 9.37749 8.63222L11.0276 4.98071L12.6777 8.63222C12.745 8.78203 12.8513 8.91098 12.9856 9.00555C13.1199 9.10012 13.2771 9.15682 13.4408 9.16972L17.0841 9.45865L14.0838 12.159C13.8233 12.3938 13.7197 12.7552 13.8151 13.0927L14.9644 17.1148L11.5376 14.83C11.3872 14.729 11.2101 14.6751 11.029 14.6751C10.8478 14.6751 10.6708 14.729 10.5204 14.83L6.93948 17.2175L7.90257 13.0478C7.93789 12.8944 7.93315 12.7346 7.88881 12.5836C7.84448 12.4326 7.76203 12.2955 7.64942 12.1856L4.86286 9.46874L8.61435 9.16972Z" fill="#F3CD03"/>
</g>
</svg>
