<svg width="23" height="23" viewBox="0 0 23 23" fill="none" xmlns="http://www.w3.org/2000/svg">
<g id="icn bxs-star">
<path id="Vector" d="M20.1364 8.41927C20.0788 8.24946 19.9727 8.10025 19.8312 7.99006C19.6897 7.87987 19.519 7.81353 19.3403 7.79922L14.1111 7.38371L11.8483 2.3747C11.7762 2.21337 11.659 2.07634 11.5108 1.98016C11.3626 1.88397 11.1897 1.83274 11.013 1.83264C10.8363 1.83254 10.6634 1.88359 10.515 1.97961C10.3667 2.07563 10.2493 2.21253 10.1771 2.37378L7.91428 7.38371L2.68513 7.79922C2.50944 7.81314 2.34148 7.87738 2.20134 7.98425C2.0612 8.09113 1.95482 8.23612 1.89493 8.40187C1.83503 8.56762 1.82416 8.74712 1.8636 8.91889C1.90305 9.09066 1.99115 9.24743 2.11736 9.37044L5.98167 13.1375L4.61499 19.0555C4.57349 19.2347 4.58679 19.4221 4.65316 19.5936C4.71954 19.7651 4.83592 19.9127 4.9872 20.0172C5.13849 20.1217 5.3177 20.1783 5.50157 20.1797C5.68545 20.1811 5.8655 20.1272 6.01836 20.025L11.0127 16.6955L16.007 20.025C16.1633 20.1288 16.3475 20.1822 16.535 20.1781C16.7225 20.1739 16.9043 20.1125 17.0558 20.002C17.2073 19.8916 17.3214 19.7373 17.3827 19.5601C17.4439 19.3828 17.4495 19.1911 17.3985 19.0106L15.7209 13.1403L19.8814 9.39612C20.1539 9.15031 20.2538 8.7669 20.1364 8.41927Z" fill="#F3CD03"/>
</g>
</svg>
